<svg width="16" height="6" viewBox="0 0 16 6" fill="none" xmlns="http://www.w3.org/2000/svg">
<mask id="path-1-inside-1_301_1581" fill="white">
<path fill-rule="evenodd" clip-rule="evenodd" d="M8.95011 4.37463V1.00191C8.95011 0.154072 9.93896 -0.309082 10.5903 0.23369L15.0899 3.98335C15.7982 4.57358 15.3968 5.71835 14.4894 5.75086C14.4789 5.75133 14.4684 5.75157 14.4579 5.75157L14.4497 5.75157H9.95011L0.68847 5.75157C0.308239 5.75157 0 5.44333 0 5.0631C0 4.68287 0.308238 4.37463 0.68847 4.37463H8.95011Z"/>
</mask>
<path fill-rule="evenodd" clip-rule="evenodd" d="M8.95011 4.37463V1.00191C8.95011 0.154072 9.93896 -0.309082 10.5903 0.23369L15.0899 3.98335C15.7982 4.57358 15.3968 5.71835 14.4894 5.75086C14.4789 5.75133 14.4684 5.75157 14.4579 5.75157L14.4497 5.75157H9.95011L0.68847 5.75157C0.308239 5.75157 0 5.44333 0 5.0631C0 4.68287 0.308238 4.37463 0.68847 4.37463H8.95011Z" fill="black"/>
<path d="M8.95011 4.37463V6.37463H10.9501V4.37463H8.95011ZM10.5903 0.23369L11.8707 -1.30275V-1.30275L10.5903 0.23369ZM15.0899 3.98335L16.3702 2.44691V2.4469L15.0899 3.98335ZM14.4894 5.75086L14.4178 3.75214L14.4085 3.75247L14.3993 3.75289L14.4894 5.75086ZM14.4579 5.75157L14.4577 7.75157H14.4579V5.75157ZM14.4497 5.75157L14.4498 3.75157H14.4497V5.75157ZM9.95011 5.75157V3.75157V5.75157ZM0.68847 5.75157V7.75157H0.68847L0.68847 5.75157ZM6.95011 1.00191V4.37463H10.9501V1.00191H6.95011ZM11.8707 -1.30275C9.91669 -2.93106 6.95011 -1.54161 6.95011 1.00191H10.9501C10.9501 1.84976 9.96124 2.3129 9.30992 1.77013L11.8707 -1.30275ZM16.3702 2.4469L11.8707 -1.30275L9.30992 1.77013L13.8095 5.51979L16.3702 2.4469ZM14.561 7.74958C17.2886 7.65185 18.499 4.22087 16.3702 2.44691L13.8095 5.51979C13.0973 4.92628 13.5051 3.78484 14.4178 3.75214L14.561 7.74958ZM14.3993 3.75289C14.4189 3.75201 14.4384 3.75157 14.4579 3.75157V7.75157C14.4984 7.75157 14.5389 7.75066 14.5794 7.74883L14.3993 3.75289ZM14.458 3.75157L14.4498 3.75157L14.4496 7.75157L14.4577 7.75157L14.458 3.75157ZM14.4497 3.75157H9.95011V7.75157H14.4497V3.75157ZM9.95011 3.75157L0.68847 3.75157L0.68847 7.75157L9.95011 7.75157V3.75157ZM0.68847 3.75157C1.41281 3.75157 2 4.33876 2 5.0631H-2C-2 6.5479 -0.79633 7.75157 0.68847 7.75157V3.75157ZM2 5.0631C2 5.78744 1.41281 6.37463 0.68847 6.37463V2.37463C-0.796332 2.37463 -2 3.5783 -2 5.0631H2ZM0.68847 6.37463H8.95011V2.37463H0.68847V6.37463Z" fill="black" mask="url(#path-1-inside-1_301_1581)"/>
</svg>
