<svg width="34" height="44" viewBox="0 0 34 44" fill="none" xmlns="http://www.w3.org/2000/svg">
<path d="M1.42892 35.9757L9.81799 33.6918L12.9113 30.6926L7.34048 24.5057L4.04496 27.8681L1.42892 35.9757Z" fill="#FFF0CB" stroke="black" stroke-width="2.4" stroke-linejoin="round"/>
<path d="M10.0837 33.606L30.4062 13.692L23.9796 6.90322L4.17957 27.6246L7.57673 27.8487L6.92623 31.0394L10.3037 30.2717L10.0837 33.606Z" fill="#FFB700" stroke="black" stroke-width="2.4" stroke-linejoin="round"/>
<path d="M3.03492 32.5648L4.29489 34.4727L1.51151 36.0213L3.03492 32.5648Z" fill="black"/>
<path d="M27.2051 16.8188L30.3743 13.7493L23.9362 6.87737L20.9028 10.7654L27.2051 16.8188Z" fill="#FF6A3B" stroke="black" stroke-width="2.4" stroke-linejoin="round"/>
<path d="M30.7307 6.90398C33.3766 9.32397 31.2317 13.3526 30.2662 13.9442L23.804 6.80164C26.9279 4.07532 28.6493 5.00036 30.7307 6.90398Z" fill="#6400FF" stroke="black" stroke-width="2.4" stroke-linejoin="round"/>
</svg>
